<svg width="697" height="649" viewBox="0 0 697 649" fill="none" xmlns="http://www.w3.org/2000/svg">
<g id="Frame 17" clip-path="url(#clip0_0_387)">
<path id="Path 3" fill-rule="evenodd" clip-rule="evenodd" d="M340.639 32.3254C264.936 8.63167 187.096 -30.8875 107.404 41.2949C27.7114 113.477 -22.3904 176.709 9.9639 258.522C42.3182 340.336 174.386 289.377 212.758 362.499C251.131 435.621 166.817 501.984 203.167 567.062C239.516 632.14 267.466 673.849 384.282 632.471C501.098 591.092 490.327 485.807 579.16 424.153C667.993 362.499 764.104 270.2 632.206 105.506C500.309 -59.1879 416.341 56.0191 340.639 32.3254Z" stroke="#96A9C6"/>
<path id="Path 3 Copy" fill-rule="evenodd" clip-rule="evenodd" d="M350.105 70.2488C288.522 51.0091 225.2 18.9188 160.371 77.5323C95.5429 136.146 54.7857 187.491 81.1055 253.925C107.425 320.359 214.86 278.98 246.076 338.356C277.292 397.732 208.704 451.621 238.274 504.465C267.843 557.31 290.58 591.178 385.608 557.578C480.636 523.978 471.875 438.484 544.139 388.42C616.403 338.356 694.588 263.408 587.291 129.673C479.994 -4.06168 411.688 89.4885 350.105 70.2488Z" stroke="#96A9C6"/>
<path id="Path 3 Copy 2" fill-rule="evenodd" clip-rule="evenodd" d="M367.812 95.4174C317.85 79.719 266.478 53.5353 213.883 101.36C161.289 149.185 128.223 191.08 149.576 245.286C170.929 299.492 258.09 265.729 283.414 314.176C308.739 362.624 253.095 406.594 277.084 449.712C301.074 492.829 319.52 520.464 396.615 493.048C473.71 465.633 466.602 395.875 525.229 355.026C583.856 314.176 647.287 253.023 560.238 143.904C473.189 34.7846 417.773 111.116 367.812 95.4174Z" stroke="#96A9C6"/>
<path id="Path 3 Copy 5" fill-rule="evenodd" clip-rule="evenodd" d="M386.316 126.184C346.021 113.588 304.588 92.5806 262.169 130.952C219.75 169.323 193.082 202.936 210.304 246.427C227.525 289.918 297.822 262.829 318.247 301.7C338.672 340.57 293.794 375.848 313.142 410.443C332.49 445.038 347.367 467.21 409.546 445.213C471.725 423.217 465.992 367.248 513.276 334.474C560.56 301.7 611.718 252.635 541.512 165.086C471.305 77.5365 426.611 138.779 386.316 126.184Z" stroke="#96A9C6"/>
<path id="Path 3 Copy 4" fill-rule="evenodd" clip-rule="evenodd" d="M391.083 146.046C358.173 135.751 324.334 118.579 289.69 149.943C255.047 181.308 233.266 208.783 247.332 244.332C261.397 279.881 318.809 257.739 335.49 289.511C352.172 321.283 315.519 350.12 331.321 378.397C347.123 406.674 359.273 424.797 410.055 406.818C460.837 388.838 456.155 343.09 494.773 316.301C533.39 289.511 575.171 249.406 517.833 177.844C460.494 106.282 423.992 156.341 391.083 146.046Z" stroke="#96A9C6"/>
<path id="Path 3 Copy 3" fill-rule="evenodd" clip-rule="evenodd" d="M400.225 160.406C373.507 152.046 346.034 138.101 317.907 163.571C289.78 189.041 272.097 211.352 283.517 240.22C294.936 269.088 341.548 251.107 355.091 276.908C368.635 302.709 338.877 326.125 351.706 349.088C364.535 372.051 374.4 386.768 415.629 372.168C456.858 357.567 453.057 320.417 484.409 298.663C515.762 276.908 549.684 244.34 503.132 186.228C456.579 128.116 426.944 168.766 400.225 160.406Z" stroke="#96A9C6"/>
</g>
<defs>
<clipPath id="clip0_0_387">
<rect width="697" height="649" fill="white"/>
</clipPath>
</defs>
</svg>
